HIERARCHY
ROOT Hips
{
  OFFSET 51.5698 84.3383 7.40177
  CHANNELS 6 Xposition Yposition Zposition Zrotation Xrotation Yrotation
  JOINT spine
  {
    OFFSET 0 5.95438 0.342407
    CHANNELS 3 Zrotation Xrotation Yrotation
    JOINT spine1
    {
      OFFSET 0 8.85602 0
      CHANNELS 3 Zrotation Xrotation Yrotation
      JOINT spine2
      {
        OFFSET 0 8.48567 0
        CHANNELS 3 Zrotation Xrotation Yrotation
        JOINT Neck
        {
          OFFSET 0 21.7863 1.0387
          CHANNELS 3 Zrotation Xrotation Yrotation
          JOINT Head
          {
            OFFSET 0 6.5822 0
            CHANNELS 3 Zrotation Xrotation Yrotation
            End Site
            {
              OFFSET 0 15.9326 -5.25436
            }
          }
        }
        JOINT RightShoulder
        {
          OFFSET -3.57307 9.16386 -0.497525
          CHANNELS 3 Zrotation Xrotation Yrotation
          JOINT RightArm
          {
            OFFSET 0 12.0192 0
            CHANNELS 3 Zrotation Xrotation Yrotation
            JOINT RightArmRoll
            {
              OFFSET 0 6.06755 0
              CHANNELS 3 Zrotation Xrotation Yrotation
              JOINT RightForeArm
              {
                OFFSET 0 17.6726 0
                CHANNELS 3 Zrotation Xrotation Yrotation
                JOINT RightForeArmRoll
                {
                  OFFSET 0 6.80872 0
                  CHANNELS 3 Zrotation Xrotation Yrotation
                  JOINT RightHand
                  {
                    OFFSET 0 13.6636 0
                    CHANNELS 3 Zrotation Xrotation Yrotation
                    End Site
                    {
                      OFFSET 0 0 0
                    }
                  }
                }
              }
            }
          }
        }
        JOINT LeftShoulder
        {
          OFFSET 3.57307 9.16386 -0.497525
          CHANNELS 3 Zrotation Xrotation Yrotation
          JOINT LeftArm
          {
            OFFSET 0 12.0192 0
            CHANNELS 3 Zrotation Xrotation Yrotation
            JOINT LeftArmRoll
            {
              OFFSET 0 6.06755 0
              CHANNELS 3 Zrotation Xrotation Yrotation
              JOINT LeftForeArm
              {
                OFFSET 0 17.6726 0
                CHANNELS 3 Zrotation Xrotation Yrotation
                JOINT LeftForeArmRoll
                {
                  OFFSET 0 6.80872 0
                  CHANNELS 3 Zrotation Xrotation Yrotation
                  JOINT LeftHand
                  {
                    OFFSET 0 13.6636 0
                    CHANNELS 3 Zrotation Xrotation Yrotation
                    End Site
                    {
                      OFFSET 0 0 0
                    }
                  }
                }
              }
            }
          }
        }
      }
    }
  }
  JOINT RightUpLeg
  {
    OFFSET -5.27774 -0.967797 -0.811858
    CHANNELS 3 Zrotation Xrotation Yrotation
    JOINT RightUpLegRoll
    {
      OFFSET 0 16.0214 0
      CHANNELS 3 Zrotation Xrotation Yrotation
      JOINT RightLeg
      {
        OFFSET 0 -19.8401 0
        CHANNELS 3 Zrotation Xrotation Yrotation
        JOINT RightLegRoll
        {
          OFFSET 0 19.905 0
          CHANNELS 3 Zrotation Xrotation Yrotation
          JOINT RightFoot
          {
            OFFSET 0 16.5675 0
            CHANNELS 3 Zrotation Xrotation Yrotation
            JOINT RightToeBase
            {
              OFFSET 0 13.8496 0
              CHANNELS 3 Zrotation Xrotation Yrotation
              End Site
              {
                OFFSET 0.00587034 6.70728 -0.773116
              }
            }
          }
        }
      }
    }
  }
  JOINT LeftUpLeg
  {
    OFFSET 5.27774 -0.967797 -0.811858
    CHANNELS 3 Zrotation Xrotation Yrotation
    JOINT LeftUpLegRoll
    {
      OFFSET 0 16.0215 0
      CHANNELS 3 Zrotation Xrotation Yrotation
      JOINT LeftLeg
      {
        OFFSET 0 19.84 0
        CHANNELS 3 Zrotation Xrotation Yrotation
        JOINT LeftLegRoll
        {
          OFFSET 0 20.089 0
          CHANNELS 3 Zrotation Xrotation Yrotation
          JOINT LeftFoot
          {
            OFFSET 0 16.3835 0
            CHANNELS 3 Zrotation Xrotation Yrotation
            JOINT LeftToeBase
            {
              OFFSET 0 13.8496 0
              CHANNELS 3 Zrotation Xrotation Yrotation
              End Site
              {
                OFFSET -0.0263083 6.70728 -0.773116
              }
            }
          }
        }
      }
    }
  }
}
MOTION
Frames: 9
Frame Time: 0.00208333
52.5401 84.2775 4.90784 -1.55597 -9.87997 -2.30892 0.473295 -0.27784 0.103713 0.971225 3.45292 0.147988 0.970749 5.09786 0.13224 -4.89433 15.5336 -0.138121 5.30114 3.90611 -1.65855 73.873 0.489764 -1.45057 106.219 17.5428 -7.21842 2.40051e-005 -1.16976e-006 2.82166e-006 -3.64085 -0.026887 -1.99241 -2.98927e-005 5.83101e-007 -3.01159 8.03009 -4.95139 0.697625 -63.8078 -1.0335 1.11291 -117.565 17.2771 16.7663 6.36111e-015 -6.36111e-015 9.54166e-015 3.65297 -0.0307682 1.99287 9.80731e-006 -1.09521e-006 3.01159 -8.0301 -4.95138 -0.697613 -179.449 -3.78244 3.06682 180 7.0152e-015 178.812 177.188 8.09869 179.89 -1.50729e-006 2.6636e-006 0.09253 -18.4794 67.7857 19.3493 8.13649 25.2327 -3.48774 -177.9 -2.32098 -1.76354 4.54188e-006 -4.6773e-006 -1.17151 -3.2576 -13.1634 -0.0143188 1.99608e-006 6.9509e-006 -0.204156 20.3617 70.0613 -21.4041 -8.13649 25.2327 3.48774 
52.5397 84.279 4.9105 -1.56095 -9.8879 -2.30976 0.474485 -0.275736 0.1037 0.973003 3.45659 0.147818 0.972532 5.10153 0.132018 -4.89322 15.54 -0.14175 5.30496 3.89278 -1.66082 73.872 0.492399 -1.44927 106.222 17.5418 -7.22096 2.40051e-005 -1.16976e-006 2.82166e-006 -3.64085 -0.026887 -1.99241 -2.98927e-005 5.83101e-007 -3.01159 8.03009 -4.95139 0.697625 -63.8116 -1.03087 1.11184 -117.56 17.288 16.7655 2.38542e-015 0 6.36111e-015 3.65297 -0.0307682 1.99287 9.80731e-006 -1.09521e-006 3.01159 -8.0301 -4.95138 -0.697613 -179.443 -3.79216 3.06423 180 7.0152e-015 178.812 177.192 8.10223 179.891 -1.50729e-006 2.6636e-006 0.0925708 -18.4814 67.7881 19.3514 8.13649 25.2327 -3.48774 -177.923 -2.34626 -1.72482 4.54188e-006 -4.6773e-006 -1.17151 -3.21541 -13.1339 -0.00937606 1.99608e-006 6.9509e-006 -0.20493 20.3745 70.0739 -21.4178 -8.13649 25.2327 3.48774 
52.543 84.2786 4.90288 -1.56621 -9.8962 -2.31084 0.475725 -0.27356 0.103688 0.974879 3.46039 0.147639 0.974414 5.10533 0.131785 -4.89233 15.547 -0.145192 5.30878 3.87898 -1.66297 73.8711 0.49507 -1.44796 106.225 17.5409 -7.22334 2.40051e-005 -1.16976e-006 2.82166e-006 -3.64085 -0.026887 -1.99241 -2.98927e-005 5.83101e-007 -3.01159 8.03009 -4.95139 0.697625 -63.8154 -1.02852 1.11093 -117.555 17.298 16.7646 -8.74653e-015 6.36111e-015 -0 3.65297 -0.0307682 1.99287 9.80731e-006 -1.09521e-006 3.01159 -8.0301 -4.95138 -0.697613 -179.437 -3.8021 3.06147 180 7.0152e-015 178.812 177.197 8.10616 179.892 -1.50729e-006 2.6636e-006 0.0926319 -18.4835 67.7906 19.3536 8.13649 25.2327 -3.48774 -177.946 -2.37259 -1.68481 4.54188e-006 -4.6773e-006 -1.17151 -3.17173 -13.1034 -0.00425956 1.99608e-006 6.9509e-006 -0.205732 20.3879 70.0869 -21.432 -8.13649 25.2327 3.48774 
52.5529 84.2776 4.90275 -1.57165 -9.90475 -2.31209 0.476999 -0.271333 0.103675 0.976825 3.46428 0.147454 0.976365 5.10922 0.131545 -4.8916 15.5543 -0.148504 5.3126 3.86485 -1.66504 73.8701 0.497764 -1.44664 106.228 17.5401 -7.22561 2.40051e-005 -1.16976e-006 2.82166e-006 -3.64085 -0.026887 -1.99241 -2.98927e-005 5.83101e-007 -3.01159 8.03009 -4.95139 0.697625 -63.8192 -1.02637 1.11013 -117.551 17.3075 16.7635 1.19271e-014 0 9.54166e-015 3.65297 -0.0307682 1.99287 9.80731e-006 -1.09521e-006 3.01159 -8.0301 -4.95138 -0.697613 -179.431 -3.8122 3.05858 180 7.0152e-015 178.812 177.202 8.11041 179.893 -1.50729e-006 2.6636e-006 0.0927073 -18.4856 67.7932 19.3559 8.13649 25.2327 -3.48774 -177.969 -2.39965 -1.64389 4.54188e-006 -4.6773e-006 -1.17151 -3.12701 -13.0721 0.000978086 1.99608e-006 6.9509e-006 -0.206554 20.4016 70.1003 -21.4466 -8.13649 25.2327 3.48774 
52.5522 84.2752 4.90124 -1.57719 -9.91346 -2.31344 0.478293 -0.269076 0.103662 0.978809 3.46822 0.147266 0.978356 5.11316 0.1313 -4.89095 15.562 -0.151742 5.31642 3.85053 -1.66706 73.8692 0.500473 -1.44531 106.231 17.5392 -7.2278 2.40051e-005 -1.16976e-006 2.82166e-006 -3.64085 -0.026887 -1.99241 -2.98927e-005 5.83101e-007 -3.01159 8.03009 -4.95139 0.697625 -63.823 -1.02432 1.10939 -117.546 17.3166 16.7624 -8.74653e-015 3.18055e-015 3.18055e-015 3.65297 -0.0307682 1.99287 9.80731e-006 -1.09521e-006 3.01159 -8.0301 -4.95138 -0.697613 -179.424 -3.82238 3.05564 180 7.0152e-015 178.812 177.206 8.11479 179.894 -1.50729e-006 2.6636e-006 0.0927908 -18.4878 67.7958 19.3583 8.13649 25.2327 -3.48774 -177.993 -2.42713 -1.60245 4.54188e-006 -4.6773e-006 -1.17151 -3.08169 -13.0403 0.00628434 1.99608e-006 6.9509e-006 -0.207388 20.4155 70.1138 -21.4614 -8.13649 25.2327 3.48774 
52.5562 84.2735 4.90085 -1.58277 -9.9222 -2.31482 0.479593 -0.266813 0.103649 0.980804 3.47217 0.147077 0.980356 5.11711 0.131054 -4.89032 15.5696 -0.154961 5.32023 3.83617 -1.66907 73.8683 0.503185 -1.44398 106.234 17.5384 -7.22999 2.40051e-005 -1.16976e-006 2.82166e-006 -3.64085 -0.026887 -1.99241 -2.98927e-005 5.83101e-007 -3.01159 8.03009 -4.95139 0.697625 -63.8269 -1.0223 1.10867 -117.542 17.3257 16.7612 -1.59028e-015 6.36111e-015 3.18055e-015 3.65297 -0.0307682 1.99287 9.80731e-006 -1.09521e-006 3.01159 -8.0301 -4.95138 -0.697613 -179.417 -3.83258 3.05267 180 7.0152e-015 178.812 177.211 8.11925 179.895 -1.50729e-006 2.6636e-006 0.0928763 -18.49 67.7985 19.3606 8.13649 25.2327 -3.48774 -178.017 -2.45471 -1.56088 4.54188e-006 -4.6773e-006 -1.17151 -3.03622 -13.0085 0.0116067 1.99608e-006 6.9509e-006 -0.208225 20.4295 70.1274 -21.4763 -8.13649 25.2327 3.48774 
52.5598 84.2767 4.89987 -1.58829 -9.93087 -2.31614 0.480882 -0.264564 0.103636 0.982779 3.4761 0.14689 0.982337 5.12104 0.13081 -4.88965 15.5772 -0.158218 5.32404 3.8219 -1.6711 73.8674 0.50589 -1.44266 106.237 17.5375 -7.2322 2.40051e-005 -1.16976e-006 2.82166e-006 -3.64085 -0.026887 -1.99241 -2.98927e-005 5.83101e-007 -3.01159 8.03009 -4.95139 0.697625 -63.8307 -1.02023 1.10791 -117.537 17.3349 16.7601 2.38542e-015 0 3.18055e-015 3.65297 -0.0307682 1.99287 9.80731e-006 -1.09521e-006 3.01159 -8.0301 -4.95138 -0.697613 -179.411 -3.84274 3.04974 180 7.0152e-015 178.812 177.216 8.12361 179.896 -1.50729e-006 2.6636e-006 0.0929578 -18.4921 67.8011 19.363 8.13649 25.2327 -3.48774 -178.041 -2.48209 -1.51957 4.54188e-006 -4.6773e-006 -1.17151 -2.99106 -12.9768 0.0168928 1.99608e-006 6.9509e-006 -0.209056 20.4434 70.1409 -21.4911 -8.13649 25.2327 3.48774 
52.5558 84.2766 4.90008 -1.59367 -9.93935 -2.31735 0.482146 -0.262351 0.103623 0.984705 3.47996 0.146707 0.984268 5.1249 0.130571 -4.88887 15.5844 -0.161568 5.32786 3.80786 -1.67319 73.8664 0.508578 -1.44134 106.24 17.5366 -7.2345 2.40051e-005 -1.16976e-006 2.82166e-006 -3.64085 -0.026887 -1.99241 -2.98927e-005 5.83101e-007 -3.01159 8.03009 -4.95139 0.697625 -63.8345 -1.01801 1.10708 -117.533 17.3445 16.7591 -7.95139e-015 0 3.18055e-015 3.65297 -0.0307682 1.99287 9.80731e-006 -1.09521e-006 3.01159 -8.0301 -4.95138 -0.697613 -179.405 -3.85279 3.04689 180 7.0152e-015 178.812 177.221 8.12776 179.897 -1.50729e-006 2.6636e-006 0.0930291 -18.4942 67.8037 19.3653 8.13649 25.2327 -3.48774 -178.064 -2.50894 -1.4789 4.54188e-006 -4.6773e-006 -1.17151 -2.94666 -12.9457 0.0220901 1.99608e-006 6.9509e-006 -0.209873 20.4571 70.1542 -21.5056 -8.13649 25.2327 3.48774 
52.5876 84.2656 4.86326 -1.59885 -9.94753 -2.31836 0.483371 -0.260196 0.103611 0.986552 3.48373 0.146531 0.986121 5.12867 0.130341 -4.88791 15.5912 -0.165068 5.33167 3.7942 -1.67538 73.8655 0.511237 -1.44003 106.243 17.5357 -7.23692 2.40051e-005 -1.16976e-006 2.82166e-006 -3.64085 -0.026887 -1.99241 -2.98927e-005 5.83101e-007 -3.01159 8.03009 -4.95139 0.697625 -63.8383 -1.01558 1.10612 -117.528 17.3548 16.7581 1.11319e-014 -6.36111e-015 9.54166e-015 3.65297 -0.0307682 1.99287 9.80731e-006 -1.09521e-006 3.01159 -8.0301 -4.95138 -0.697613 -179.398 -3.86267 3.04418 180 7.0152e-015 178.812 177.225 8.13158 179.898 -1.50729e-006 2.6636e-006 0.0930841 -18.4963 67.8062 19.3675 8.13649 25.2327 -3.48774 -178.086 -2.53495 -1.43927 4.54188e-006 -4.6773e-006 -1.17151 -2.90346 -12.9155 0.0271465 1.99608e-006 6.9509e-006 -0.210667 20.4704 70.1671 -21.5198 -8.13649 25.2327 3.48774 
